# xmcd CD database file
#
# Track frame offsets:
#	150
#	14167
#	33370
#	55392
#	74157
#	97502
#	128765
#	141420
#	176637
#	210287
#	221610
#
# Disc length: 3191 seconds
#
# Revision: 2
# Processed by: cddbd v1.5.2PL0 Copyright (c) Steve Scherf et al.
# Submitted via: CDex 1.70beta3
#
DISCID=a30c750b
DTITLE=POTSHOT - エレファントカシマシ カヴァーアルバム 花男 ～A Tribute to The Elephant Kashimashi～
DYEAR=2003
DGENRE=J-Rock
TTITLE0=POTSHOT/so many people
TTITLE1=HUSKING BEE/さらば青春
TTITLE2=STANCE PUNKS/孤独な太陽
TTITLE3=ストレイテナー/孤独な旅人
TTITLE4=石野卓球/浮雲男(Takkyu’s Japp ppopp Mix)
TTITLE5=DMBQ/星の砂
TTITLE6=怒髪天/男餓鬼道空っ風
TTITLE7=Syrup 16g/遁世(白昼夢ver.)
TTITLE8=KING BROTHERS/男は行く
TTITLE9=BAZRA/星の降るような夜に
TTITLE10=銀杏BOYZ/悲しみの果て
EXTD=YEAR: 2003
EXTT0=
EXTT1=
EXTT2=
EXTT3=
EXTT4=
EXTT5=
EXTT6=
EXTT7=
EXTT8=
EXTT9=
EXTT10=
PLAYORDER=
